<mxfile host="app.diagrams.net" modified="2022-11-02T17:25:02.178Z" agent="5.0 (Windows)" etag="RPCpry4nn2aVwfAm1ccK" version="20.5.1" type="github">
  <diagram id="kgpKYQtTHZ0yAKxKKP6v" name="Page-1">
    <mxGraphModel dx="2628" dy="930" grid="1" gridSize="10" guides="1" tooltips="1" connect="1" arrows="1" fold="1" page="1" pageScale="1" pageWidth="850" pageHeight="1100" math="0" shadow="0">
      <root>
        <mxCell id="0" />
        <mxCell id="1" parent="0" />
        <mxCell id="3nuBFxr9cyL0pnOWT2aG-1" value="Frontend" style="shape=umlLifeline;perimeter=lifelinePerimeter;container=1;collapsible=0;recursiveResize=0;rounded=0;shadow=0;strokeWidth=1;" parent="1" vertex="1">
          <mxGeometry x="120" y="80" width="100" height="560" as="geometry" />
        </mxCell>
        <mxCell id="3nuBFxr9cyL0pnOWT2aG-2" value="" style="points=[];perimeter=orthogonalPerimeter;rounded=0;shadow=0;strokeWidth=1;" parent="3nuBFxr9cyL0pnOWT2aG-1" vertex="1">
          <mxGeometry x="45" y="70" width="10" height="360" as="geometry" />
        </mxCell>
        <mxCell id="yL3uTGqFGz5-7QbEJGZQ-21" value="Login erfolgreich" style="verticalAlign=bottom;endArrow=open;dashed=1;endSize=8;exitX=0;exitY=0.95;shadow=0;strokeWidth=1;" edge="1" parent="3nuBFxr9cyL0pnOWT2aG-1">
          <mxGeometry relative="1" as="geometry">
            <mxPoint x="65" y="370" as="targetPoint" />
            <mxPoint x="225" y="370.4699999999998" as="sourcePoint" />
          </mxGeometry>
        </mxCell>
        <mxCell id="3nuBFxr9cyL0pnOWT2aG-5" value="Backend" style="shape=umlLifeline;perimeter=lifelinePerimeter;container=1;collapsible=0;recursiveResize=0;rounded=0;shadow=0;strokeWidth=1;" parent="1" vertex="1">
          <mxGeometry x="300" y="80" width="100" height="550" as="geometry" />
        </mxCell>
        <mxCell id="3nuBFxr9cyL0pnOWT2aG-6" value="" style="points=[];perimeter=orthogonalPerimeter;rounded=0;shadow=0;strokeWidth=1;" parent="3nuBFxr9cyL0pnOWT2aG-5" vertex="1">
          <mxGeometry x="45" y="200" width="10" height="190" as="geometry" />
        </mxCell>
        <mxCell id="yL3uTGqFGz5-7QbEJGZQ-20" value="Passworthash vergleichen" style="verticalAlign=bottom;endArrow=open;dashed=1;endSize=8;exitX=1.595;exitY=0.494;shadow=0;strokeWidth=1;exitDx=0;exitDy=0;exitPerimeter=0;entryX=1.384;entryY=0.738;entryDx=0;entryDy=0;entryPerimeter=0;" edge="1" parent="3nuBFxr9cyL0pnOWT2aG-5" source="3nuBFxr9cyL0pnOWT2aG-6" target="3nuBFxr9cyL0pnOWT2aG-6">
          <mxGeometry relative="1" as="geometry">
            <mxPoint x="70" y="340" as="targetPoint" />
            <mxPoint x="230" y="340.4699999999998" as="sourcePoint" />
            <Array as="points">
              <mxPoint x="130" y="294" />
              <mxPoint x="130" y="320" />
              <mxPoint x="130" y="340" />
            </Array>
          </mxGeometry>
        </mxCell>
        <mxCell id="yL3uTGqFGz5-7QbEJGZQ-1" value="Datenbank" style="shape=umlLifeline;perimeter=lifelinePerimeter;container=1;collapsible=0;recursiveResize=0;rounded=0;shadow=0;strokeWidth=1;" vertex="1" parent="1">
          <mxGeometry x="480" y="80" width="100" height="550" as="geometry" />
        </mxCell>
        <mxCell id="yL3uTGqFGz5-7QbEJGZQ-2" value="" style="points=[];perimeter=orthogonalPerimeter;rounded=0;shadow=0;strokeWidth=1;" vertex="1" parent="yL3uTGqFGz5-7QbEJGZQ-1">
          <mxGeometry x="45" y="240" width="10" height="160" as="geometry" />
        </mxCell>
        <mxCell id="yL3uTGqFGz5-7QbEJGZQ-5" value="" style="points=[];perimeter=orthogonalPerimeter;rounded=0;shadow=0;strokeWidth=1;" vertex="1" parent="1">
          <mxGeometry x="-20" y="160" width="10" height="470" as="geometry" />
        </mxCell>
        <mxCell id="yL3uTGqFGz5-7QbEJGZQ-8" style="edgeStyle=orthogonalEdgeStyle;rounded=0;orthogonalLoop=1;jettySize=auto;html=1;" edge="1" parent="1" source="yL3uTGqFGz5-7QbEJGZQ-6" target="yL3uTGqFGz5-7QbEJGZQ-5">
          <mxGeometry relative="1" as="geometry" />
        </mxCell>
        <mxCell id="yL3uTGqFGz5-7QbEJGZQ-6" value="G" style="shape=umlActor;verticalLabelPosition=bottom;verticalAlign=top;html=1;outlineConnect=0;" vertex="1" parent="1">
          <mxGeometry x="-30" y="70" width="30" height="60" as="geometry" />
        </mxCell>
        <mxCell id="yL3uTGqFGz5-7QbEJGZQ-12" value="show Login Screen" style="verticalAlign=bottom;endArrow=open;dashed=1;endSize=8;exitX=0;exitY=0.95;shadow=0;strokeWidth=1;" edge="1" parent="1">
          <mxGeometry relative="1" as="geometry">
            <mxPoint x="-10" y="199.9999999999999" as="targetPoint" />
            <mxPoint x="160" y="199.9999999999999" as="sourcePoint" />
          </mxGeometry>
        </mxCell>
        <mxCell id="yL3uTGqFGz5-7QbEJGZQ-13" value="klickt Button &quot;Login&quot;" style="verticalAlign=bottom;endArrow=block;entryX=0;entryY=0;shadow=0;strokeWidth=1;" edge="1" parent="1">
          <mxGeometry relative="1" as="geometry">
            <mxPoint x="-10" y="170.00000000000057" as="sourcePoint" />
            <mxPoint x="160" y="170.00000000000057" as="targetPoint" />
          </mxGeometry>
        </mxCell>
        <mxCell id="yL3uTGqFGz5-7QbEJGZQ-14" value="klickt Button &quot;Login&quot;" style="verticalAlign=bottom;endArrow=block;shadow=0;strokeWidth=1;" edge="1" parent="1">
          <mxGeometry relative="1" as="geometry">
            <mxPoint y="264.57000000000045" as="sourcePoint" />
            <mxPoint x="160" y="265.00000000000017" as="targetPoint" />
          </mxGeometry>
        </mxCell>
        <mxCell id="yL3uTGqFGz5-7QbEJGZQ-15" value="Username &amp; Passwort eingeben" style="verticalAlign=bottom;endArrow=block;shadow=0;strokeWidth=1;" edge="1" parent="1">
          <mxGeometry relative="1" as="geometry">
            <mxPoint y="244.57000000000045" as="sourcePoint" />
            <mxPoint x="160" y="245.00000000000017" as="targetPoint" />
          </mxGeometry>
        </mxCell>
        <mxCell id="yL3uTGqFGz5-7QbEJGZQ-16" value="User Daten Validierung" style="verticalAlign=bottom;endArrow=block;shadow=0;strokeWidth=1;" edge="1" parent="1">
          <mxGeometry relative="1" as="geometry">
            <mxPoint x="180" y="300.0000000000003" as="sourcePoint" />
            <mxPoint x="340" y="300.43000000000035" as="targetPoint" />
          </mxGeometry>
        </mxCell>
        <mxCell id="yL3uTGqFGz5-7QbEJGZQ-17" value="Validierte User Daten" style="verticalAlign=bottom;endArrow=block;shadow=0;strokeWidth=1;" edge="1" parent="1">
          <mxGeometry relative="1" as="geometry">
            <mxPoint x="360" y="340.00000000000034" as="sourcePoint" />
            <mxPoint x="520" y="340.4300000000003" as="targetPoint" />
          </mxGeometry>
        </mxCell>
        <mxCell id="yL3uTGqFGz5-7QbEJGZQ-19" value="Passworthash der Datenbank" style="verticalAlign=bottom;endArrow=open;dashed=1;endSize=8;exitX=0;exitY=0.95;shadow=0;strokeWidth=1;" edge="1" parent="1">
          <mxGeometry relative="1" as="geometry">
            <mxPoint x="360" y="359" as="targetPoint" />
            <mxPoint x="520" y="359.4699999999999" as="sourcePoint" />
          </mxGeometry>
        </mxCell>
        <mxCell id="yL3uTGqFGz5-7QbEJGZQ-22" value="show Homescreen eingeloggt" style="verticalAlign=bottom;endArrow=open;dashed=1;endSize=8;exitX=0;exitY=0.95;shadow=0;strokeWidth=1;" edge="1" parent="1">
          <mxGeometry relative="1" as="geometry">
            <mxPoint y="490" as="targetPoint" />
            <mxPoint x="160" y="490.4699999999998" as="sourcePoint" />
          </mxGeometry>
        </mxCell>
      </root>
    </mxGraphModel>
  </diagram>
</mxfile>
